<?xml version="1.0" standalone="no"?>
<!DOCTYPE svg PUBLIC "-//W3C//DTD SVG 20010904//EN"
 "http://www.w3.org/TR/2001/REC-SVG-20010904/DTD/svg10.dtd">
<svg version="1.0" xmlns="http://www.w3.org/2000/svg"
 width="169.000000pt" height="169.000000pt" viewBox="0 0 169.000000 169.000000"
 preserveAspectRatio="xMidYMid meet">
<metadata>
Created by potrace 1.11, written by Peter Selinger 2001-2013
</metadata>
<g transform="translate(0.000000,169.000000) scale(0.100000,-0.100000)"
fill="#000000" stroke="none">
<path d="M47 1667 c-14 -12 -31 -35 -36 -50 -14 -37 -15 -1505 -2 -1541 13
-32 42 -66 53 -60 4 3 8 1 8 -5 0 -7 257 -10 774 -10 850 0 798 -4 830 63 14
30 16 111 16 780 0 805 1 794 -52 828 -23 15 -100 17 -795 17 l-771 0 -25 -22z"/>
</g>
</svg>
